<?xml version="1.0" standalone="no"?>
<!DOCTYPE svg PUBLIC "-//W3C//DTD SVG 20010904//EN"
 "http://www.w3.org/TR/2001/REC-SVG-20010904/DTD/svg10.dtd">
<svg version="1.0" xmlns="http://www.w3.org/2000/svg"
 width="1350.000000pt" height="1560.000000pt" viewBox="0 0 1350.000000 1560.000000"
 preserveAspectRatio="xMidYMid meet">
<metadata>
Created by potrace 1.10, written by Peter Selinger 2001-2011
</metadata>
<g transform="translate(0.000000,1560.000000) scale(0.100000,-0.100000)"
fill="#000000" stroke="none">
<path d="M5952 13248 c7 -13 20 -28 28 -35 13 -12 13 -15 -3 -27 -17 -13 -16
-15 13 -24 38 -14 38 -26 0 -85 -48 -76 -37 -93 37 -62 47 20 92 19 100 -1 10
-26 -9 -33 -101 -35 -59 -2 -90 -7 -93 -15 -13 -34 -85 -15 -98 26 -8 25 -53
53 -72 46 -14 -6 -14 -8 0 -24 19 -22 8 -52 -27 -75 -35 -23 -73 -22 -81 3 -6
18 -8 19 -31 4 -13 -9 -24 -24 -24 -34 0 -11 -10 -20 -26 -24 l-25 -7 23 -19
23 -18 -28 -11 c-38 -15 -57 -14 -57 2 0 8 -9 22 -20 32 -20 18 -43 17 -188
-11 -12 -3 -28 -16 -34 -30 -6 -13 -19 -24 -27 -22 -18 2 -97 -37 -119 -58 -7
-8 -22 -14 -32 -14 -26 0 -103 -34 -119 -53 -10 -13 -11 -24 -3 -46 12 -35 4
-41 -45 -34 -27 4 -33 10 -33 29 0 15 6 24 15 24 8 0 15 5 15 10 0 16 -13 12
-50 -18 -19 -15 -51 -36 -70 -46 -19 -10 -44 -29 -54 -43 -19 -26 -19 -26 5
-44 27 -20 27 -20 -20 -42 -43 -21 -71 -22 -71 -2 0 12 -7 10 -26 -9 -15 -13
-44 -32 -65 -43 -24 -11 -47 -34 -64 -63 -17 -29 -50 -61 -91 -89 -74 -50 -79
-63 -70 -161 11 -119 47 -177 177 -283 25 -20 53 -37 61 -37 8 0 26 -8 39 -18
13 -10 32 -21 41 -25 9 -3 25 -26 36 -50 11 -24 24 -47 30 -51 6 -3 16 -23 23
-43 6 -20 26 -57 44 -82 36 -51 52 -94 59 -162 3 -25 10 -58 15 -73 6 -14 13
-91 16 -169 9 -225 32 -376 66 -437 23 -41 49 -105 49 -121 0 -27 19 -33 24
-7 3 13 7 50 10 83 2 33 9 101 15 150 6 50 13 151 14 225 2 130 3 137 32 185
16 28 39 71 52 97 12 25 26 49 32 52 19 12 62 109 53 118 -15 15 -1 90 23 123
12 17 39 58 59 93 21 34 41 60 45 58 8 -5 81 77 81 91 0 5 13 23 29 40 27 29
34 32 83 30 54 -3 98 -22 98 -44 0 -6 4 -14 9 -18 17 -10 101 17 115 36 11 17
12 13 8 -30 -2 -26 0 -51 4 -54 15 -8 54 11 54 26 0 17 54 42 69 32 15 -9 14
-35 -3 -54 -20 -24 1 -66 34 -66 14 -1 40 -4 58 -8 27 -6 32 -4 32 13 0 18 9
24 28 18 7 -3 9 -9 11 -39 0 -9 13 -22 29 -30 15 -7 40 -23 55 -34 23 -16 42
-19 103 -17 58 2 83 -2 114 -18 22 -11 50 -20 63 -20 35 0 93 -26 101 -45 4
-11 13 -14 25 -10 24 7 79 -25 73 -44 -6 -17 18 -32 41 -25 25 8 61 -19 77
-56 12 -28 11 -33 -11 -56 -13 -14 -28 -46 -34 -71 -10 -44 -12 -46 -58 -58
-62 -16 -71 -25 -56 -58 14 -31 -1 -57 -33 -57 -15 0 -18 5 -13 20 9 28 -26
27 -103 -5 -34 -14 -73 -25 -87 -25 -34 0 -65 17 -65 34 0 20 -58 66 -83 66
-12 0 -31 7 -41 15 -11 8 -37 15 -57 15 -21 0 -41 5 -45 11 -5 9 -42 10 -133
4 -69 -5 -166 -9 -216 -10 -126 -2 -160 -10 -173 -40 -6 -14 -20 -25 -29 -25
-28 -1 -66 -37 -59 -56 5 -12 13 -14 34 -8 36 11 78 9 132 -5 25 -7 85 -14
133 -15 81 -3 90 -5 118 -32 16 -16 27 -34 24 -42 -3 -8 0 -21 6 -28 15 -19 5
-21 -119 -28 -56 -3 -107 -8 -113 -12 -20 -12 14 -24 68 -24 57 0 79 -16 36
-26 -84 -19 -160 -50 -220 -90 -125 -80 -130 -90 -41 -79 45 6 57 12 74 36 20
30 78 59 116 59 l22 0 -23 -16 c-19 -13 -22 -22 -17 -47 4 -17 18 -44 33 -59
23 -24 35 -28 79 -28 45 0 54 3 70 28 10 15 24 33 31 40 7 7 13 22 13 33 0 28
34 21 38 -8 5 -37 -70 -101 -147 -124 -24 -7 -45 -19 -48 -27 -3 -7 -17 -18
-31 -23 -24 -9 -23 -10 22 -34 44 -23 52 -24 124 -16 55 7 98 19 150 45 40 20
77 36 82 36 5 0 9 15 8 33 -1 36 24 68 85 106 42 26 45 32 41 98 -3 59 -16 89
-52 119 -38 31 -24 54 32 54 25 0 48 5 52 11 13 22 73 40 95 29 11 -6 32 -12
47 -13 21 -2 28 -8 30 -30 2 -15 7 -27 12 -27 22 0 55 -78 62 -145 7 -83 22
-157 47 -245 28 -95 43 -170 43 -215 1 -59 -8 -128 -19 -151 -5 -10 -16 -46
-23 -79 -12 -53 -21 -66 -72 -114 -61 -56 -66 -68 -45 -102 10 -17 9 -22 -7
-35 -11 -8 -28 -14 -38 -14 -10 0 -22 -8 -25 -17 -9 -25 -20 -31 -78 -38 -27
-4 -57 -13 -65 -20 -8 -7 -24 -15 -35 -17 -11 -2 -24 -13 -30 -25 -8 -19 -15
-22 -46 -17 -32 5 -39 3 -58 -25 -17 -23 -30 -31 -54 -31 -18 0 -41 -7 -51
-15 -25 -19 -47 -19 -40 -1 6 16 -25 58 -38 50 -4 -3 -8 -14 -8 -24 0 -10 -4
-20 -9 -22 -16 -5 -59 -69 -86 -126 -30 -64 -32 -101 -4 -136 19 -24 25 -26
77 -20 31 3 66 9 77 14 11 5 32 11 47 14 18 4 30 15 34 30 5 19 14 25 53 30
26 3 81 2 122 -4 41 -6 115 -12 164 -15 90 -4 219 -26 232 -39 11 -10 -8 -21
-77 -46 -36 -12 -74 -31 -85 -41 -12 -11 -44 -21 -79 -25 -54 -7 -63 -11 -113
-61 -29 -30 -53 -58 -53 -63 0 -5 20 -30 44 -55 30 -31 52 -45 70 -45 34 0 42
-22 23 -63 -19 -40 -12 -77 14 -77 23 0 24 -4 2 -30 -22 -25 -33 -25 -33 0 0
30 -20 24 -65 -20 -22 -22 -46 -38 -53 -35 -8 3 -23 -2 -35 -10 -12 -8 -32
-15 -44 -15 -13 0 -23 -5 -23 -11 0 -6 -7 -9 -15 -5 -8 3 -36 -5 -62 -18 -43
-21 -56 -22 -122 -16 -64 6 -78 11 -98 35 l-24 28 -35 -19 c-19 -10 -34 -24
-34 -31 0 -21 -15 -15 -56 22 -27 25 -47 35 -70 35 -47 0 -64 9 -64 36 0 14
-10 30 -26 40 -23 16 -25 22 -20 59 7 43 -5 64 -48 79 -11 4 -16 12 -12 22 15
40 16 60 2 79 -16 20 -16 20 -22 -2 -8 -28 -24 -30 -31 -3 -3 11 -8 20 -12 20
-3 0 -16 3 -28 6 -17 5 -23 2 -23 -10 0 -27 -27 -18 -40 15 -10 22 -10 33 -1
42 6 6 11 17 11 23 0 18 -39 28 -55 14 -30 -25 -48 18 -20 47 19 19 11 52 -18
75 -12 10 -27 22 -33 27 -6 5 -12 35 -12 66 0 31 -7 71 -15 88 -8 18 -18 73
-22 122 -4 50 -12 98 -17 108 -11 22 -28 111 -37 192 -3 33 -10 59 -16 57 -13
-3 -15 -163 -3 -178 8 -12 19 -88 38 -279 5 -49 16 -121 25 -160 9 -38 21
-101 26 -139 5 -38 16 -81 23 -95 8 -14 22 -46 31 -71 25 -64 45 -101 70 -130
13 -14 34 -48 48 -76 15 -28 35 -54 45 -56 10 -3 38 -35 62 -70 30 -47 60 -77
104 -106 79 -52 184 -155 192 -187 3 -14 17 -34 30 -44 13 -10 24 -23 24 -28
0 -18 79 -93 98 -93 26 0 34 11 20 27 -6 7 -8 16 -5 19 3 3 11 -2 18 -11 48
-59 57 -65 83 -55 20 7 26 6 26 -5 0 -19 39 -45 67 -45 12 0 26 -6 30 -14 4
-7 24 -24 43 -37 70 -48 100 -73 100 -84 0 -6 9 -18 20 -28 13 -11 20 -29 20
-51 0 -18 7 -39 15 -46 9 -8 13 -21 9 -37 -4 -15 0 -30 10 -42 9 -10 25 -35
35 -55 17 -33 17 -37 3 -45 -18 -10 -19 -76 -1 -97 11 -13 -3 -58 -22 -69 -19
-13 -151 -14 -170 -2 -13 8 -21 8 -31 -1 -20 -16 -60 -4 -54 17 3 9 -4 27 -15
41 l-21 25 -19 -24 c-24 -29 -24 -38 1 -51 30 -16 25 -40 -10 -47 -37 -7 -42
-46 -8 -64 l23 -12 -23 -10 c-13 -6 -24 -22 -27 -41 -15 -76 -17 -93 -17 -125
1 -18 7 -40 15 -50 8 -9 17 -24 20 -33 4 -11 12 -15 22 -12 9 4 18 -1 22 -12
4 -11 19 -31 35 -46 16 -14 28 -37 28 -50 0 -13 4 -28 9 -33 13 -14 52 -123
61 -170 9 -47 19 -75 35 -95 6 -8 18 -34 25 -58 17 -55 51 -82 102 -82 39 0
40 1 33 28 -13 45 -8 59 34 101 45 45 72 114 53 133 -7 7 -12 22 -12 35 0 28
58 49 76 27 15 -19 19 -18 51 12 32 30 88 56 120 56 12 0 29 8 38 18 15 16 19
16 46 3 16 -8 29 -21 29 -29 0 -8 7 -17 15 -21 9 -3 24 -23 35 -46 16 -32 18
-48 11 -79 -6 -26 -5 -67 4 -122 7 -45 13 -91 12 -102 -2 -16 4 -19 38 -17 22
1 66 2 97 3 32 0 70 5 85 11 16 6 53 15 83 20 30 6 75 13 100 18 25 4 61 17
80 29 19 12 44 26 55 32 11 6 34 19 50 30 17 11 40 24 53 30 12 5 22 14 22 20
0 5 6 10 13 10 6 0 23 12 36 26 34 35 61 49 61 30 0 -17 -55 -74 -84 -87 -29
-12 -51 -27 -118 -76 -31 -24 -61 -43 -66 -43 -6 0 -23 -6 -39 -14 -29 -15
-96 -34 -148 -42 -16 -3 -39 -10 -50 -15 -64 -29 -315 -64 -386 -53 -19 3 -55
-1 -80 -10 -24 -8 -70 -19 -101 -25 -65 -12 -170 -81 -166 -109 2 -10 -5 -18
-17 -20 -35 -7 -39 -21 -9 -32 16 -7 43 -18 59 -26 17 -7 53 -15 80 -16 36 -2
50 -7 50 -18 0 -21 -62 -37 -86 -22 -11 7 -31 9 -45 6 -16 -4 -31 -1 -43 10
-21 19 -37 7 -43 -34 -2 -19 -11 -26 -43 -33 -22 -4 -55 -7 -72 -5 -18 2 -33
1 -33 -2 0 -29 146 -115 240 -140 25 -7 59 -19 77 -26 17 -8 34 -14 38 -14 7
0 52 -19 101 -42 16 -7 28 -6 45 5 13 9 45 19 71 22 27 4 68 21 98 41 29 19
60 34 70 34 10 0 20 9 23 20 6 24 34 26 57 5 10 -9 35 -18 56 -21 22 -3 45 -7
51 -9 18 -6 5 -33 -18 -40 -10 -4 -19 -11 -19 -16 0 -14 33 -10 54 6 11 8 32
15 47 15 15 0 31 5 34 10 3 6 15 10 26 10 10 0 27 9 36 20 24 27 93 27 150 -1
41 -20 45 -20 62 -5 10 9 27 16 39 16 12 0 44 16 71 36 44 31 57 35 111 35 34
0 68 -5 76 -12 12 -10 20 -6 44 21 23 26 30 43 30 76 0 24 4 45 9 48 5 3 12
22 16 42 7 42 18 64 58 116 19 25 29 51 30 79 3 55 27 73 58 43 18 -18 19 -25
9 -44 -15 -28 -6 -50 21 -50 17 0 20 -4 15 -24 -3 -14 0 -28 8 -35 22 -18 25
-46 8 -81 -12 -25 -13 -33 -3 -40 10 -5 7 -14 -12 -32 -33 -33 -79 -127 -74
-152 3 -19 5 -18 18 9 25 52 51 85 68 85 21 0 71 46 71 65 0 8 5 15 10 15 24
0 7 -52 -30 -95 -44 -51 -46 -58 -27 -95 12 -23 21 -94 18 -145 -4 -74 0 -190
7 -197 4 -4 22 1 40 12 30 19 32 23 32 79 0 33 4 63 10 66 5 3 10 24 10 45 0
21 5 40 10 42 6 2 13 35 16 73 11 153 13 171 23 198 14 36 35 43 67 22 28 -18
54 -14 54 10 0 13 3 13 20 3 15 -10 22 -10 32 0 14 14 48 16 48 2 0 -5 8 -10
18 -10 20 1 67 95 64 130 -1 10 0 11 4 3 3 -7 15 -13 26 -13 16 0 19 -6 16
-32 -3 -30 -1 -33 26 -33 17 0 31 -6 34 -15 3 -8 10 -18 16 -22 6 -4 4 -9 -7
-14 -9 -3 -17 -10 -17 -14 0 -10 49 -24 73 -21 18 2 23 -14 7 -24 -22 -14 -10
-54 20 -70 17 -9 30 -21 30 -27 0 -6 11 -34 25 -63 13 -29 34 -83 46 -121 11
-38 30 -91 40 -119 11 -27 28 -90 39 -140 18 -86 32 -137 50 -180 4 -11 13
-45 19 -75 7 -30 16 -64 21 -75 17 -41 42 -121 49 -160 12 -60 31 -125 52
-172 11 -24 19 -47 19 -52 0 -5 13 -39 29 -75 43 -95 56 -227 41 -421 -6 -82
-16 -165 -21 -183 -6 -17 -8 -40 -4 -51 3 -10 -1 -24 -10 -31 -11 -9 -14 -22
-9 -46 5 -27 3 -34 -10 -34 -10 0 -16 9 -16 24 0 14 -5 28 -11 32 -7 4 -9 21
-5 43 3 20 2 52 -3 71 -5 19 -12 107 -15 195 -8 209 -11 232 -30 285 -9 25
-16 53 -16 62 0 10 -9 23 -20 30 -14 9 -20 24 -20 50 0 35 -2 38 -29 38 -16 0
-34 -7 -41 -16 -8 -9 -25 -14 -44 -12 -26 2 -31 7 -31 28 0 20 -6 26 -27 28
-22 3 -30 -2 -37 -21 -6 -14 -15 -28 -20 -32 -6 -3 -11 -17 -11 -30 0 -13 -5
-27 -10 -30 -6 -4 -8 -21 -5 -38 4 -18 2 -44 -4 -59 -9 -25 -12 -26 -82 -23
-40 2 -78 1 -84 -1 -7 -3 -11 -61 -12 -172 -3 -341 -21 -676 -39 -717 -10 -25
-14 -52 -10 -76 3 -21 0 -54 -7 -75 -8 -22 -12 -58 -9 -81 2 -23 -2 -59 -9
-80 -8 -21 -15 -60 -15 -88 -1 -27 -7 -81 -13 -120 -6 -38 -13 -95 -15 -126
-5 -78 -25 -166 -48 -215 -10 -23 -16 -48 -13 -56 6 -14 -13 -113 -48 -263
-27 -112 -47 -240 -51 -325 -3 -47 -9 -132 -15 -190 -6 -58 -9 -145 -8 -195 2
-49 0 -102 -5 -117 -6 -18 -6 -34 2 -48 9 -16 8 -39 -1 -93 -8 -40 -12 -83
-11 -95 2 -13 -2 -30 -8 -37 -7 -8 -9 -28 -4 -50 4 -25 2 -41 -8 -53 -16 -20
-41 -109 -33 -122 3 -5 1 -11 -5 -15 -12 -7 -60 -102 -60 -120 0 -7 -7 -18
-16 -26 -10 -8 -14 -23 -11 -43 2 -17 -2 -41 -10 -53 -8 -12 -13 -30 -11 -41
2 -10 -2 -25 -8 -33 -6 -8 -17 -75 -23 -149 -7 -74 -17 -145 -22 -158 -10 -25
-12 -62 -4 -62 14 0 54 57 55 76 0 17 10 25 45 35 25 7 45 19 45 25 0 6 7 17
16 25 13 10 17 10 24 0 5 -9 -11 -32 -46 -70 -54 -56 -64 -83 -45 -120 6 -10
7 -44 4 -76 -5 -49 -8 -55 -18 -41 -11 14 -16 11 -49 -28 -20 -25 -36 -55 -36
-70 0 -27 15 -43 25 -26 8 13 25 13 25 -1 0 -6 -9 -13 -20 -16 -12 -3 -25 -22
-35 -53 -9 -27 -22 -53 -29 -59 -7 -6 -16 -39 -20 -73 -4 -39 -13 -69 -25 -82
-13 -15 -17 -30 -14 -54 3 -18 0 -38 -6 -46 -6 -7 -9 -20 -5 -29 3 -10 -2 -20
-15 -26 -11 -7 -32 -28 -45 -48 -42 -61 -36 -63 231 -63 l235 0 -4 23 c-3 12
-7 29 -9 37 -3 9 5 16 20 18 21 3 23 1 17 -21 -3 -14 -9 -32 -12 -41 -6 -15
152 -16 1822 -14 1823 3 1829 3 1826 23 -1 11 -2 31 -2 45 1 14 1 53 1 88 0
54 3 62 19 62 26 0 32 -14 15 -36 -23 -30 -17 -38 10 -13 17 17 22 31 18 47
-4 16 1 29 15 43 17 15 20 26 15 50 -5 25 -3 31 8 27 8 -3 13 -13 11 -23 -2
-9 1 -14 7 -11 5 4 7 27 5 52 l-5 45 33 -3 c32 -3 33 -2 30 30 -2 18 1 32 7
32 6 0 11 -6 11 -14 0 -8 7 -17 16 -20 23 -9 28 -1 9 14 -21 18 -20 52 3 48
13 -2 17 4 16 27 0 22 -5 29 -17 27 -11 -2 -17 4 -17 18 0 11 7 20 15 20 8 0
15 7 15 15 0 9 7 15 17 13 25 -4 27 75 2 98 -14 13 -16 20 -7 34 15 23 -5 52
-29 43 -13 -5 -15 1 -10 41 5 38 2 51 -13 66 -28 28 -52 86 -45 109 3 10 1 22
-5 26 -6 3 -10 -3 -10 -14 0 -12 -5 -21 -11 -21 -7 0 -9 11 -5 30 4 23 0 36
-14 50 -11 11 -19 26 -18 33 2 7 -5 11 -16 9 -13 -3 -17 1 -13 11 3 8 -3 23
-14 33 -11 10 -18 23 -15 29 3 8 -5 10 -21 7 -23 -4 -25 -3 -19 25 5 22 3 32
-8 36 -8 3 -14 14 -14 24 0 10 -5 32 -13 48 -7 17 -13 37 -14 45 0 9 -8 14
-19 12 -16 -3 -18 1 -13 27 5 24 2 35 -15 50 -15 15 -19 27 -14 45 5 19 1 31
-14 46 -11 11 -18 25 -15 30 3 5 -3 18 -15 30 -11 11 -19 23 -18 28 1 4 -4 23
-12 42 -7 19 -14 42 -15 50 0 8 -8 14 -17 12 -10 -1 -17 4 -18 15 -4 75 -5 80
-19 75 -11 -4 -13 1 -8 26 5 22 2 36 -11 48 -9 10 -18 25 -18 33 -1 9 -8 30
-15 46 -7 17 -13 37 -14 45 -1 9 -9 31 -18 50 -9 19 -16 46 -16 60 0 37 -12
93 -23 108 -7 8 -7 12 1 12 6 0 11 9 11 21 0 18 -4 20 -29 14 -17 -3 -32 -2
-36 5 -4 6 6 13 24 16 16 4 32 12 35 20 3 8 18 14 34 14 16 0 35 6 41 14 6 7
26 16 44 20 116 22 134 84 66 236 -17 36 -34 72 -40 80 -31 47 -99 209 -99
238 0 6 -27 81 -61 165 -33 83 -83 215 -110 292 -28 77 -55 148 -60 158 -18
33 -69 171 -69 187 0 8 -6 27 -14 41 -7 15 -23 60 -36 100 -12 41 -25 85 -30
99 -4 14 -18 61 -30 105 -12 44 -27 91 -32 105 -6 14 -23 66 -40 115 -16 50
-36 104 -44 120 -8 17 -27 66 -42 110 -96 268 -135 371 -143 379 -5 6 -9 16
-9 24 0 7 -9 34 -21 60 -32 74 -45 104 -59 142 -7 19 -27 67 -45 105 -17 39
-40 93 -50 120 -10 28 -24 57 -30 65 -27 34 -133 259 -144 305 -7 28 -28 91
-48 140 -35 90 -49 122 -96 225 -14 30 -35 87 -45 126 -34 122 -74 176 -150
199 -12 3 -29 19 -36 34 -8 15 -42 45 -75 66 -34 21 -61 41 -61 45 0 14 -58
32 -80 25 -18 -6 -160 -140 -160 -151 0 -2 -20 -30 -45 -63 -25 -32 -45 -63
-45 -68 0 -4 -18 -28 -40 -53 -26 -30 -40 -39 -40 -28 0 9 4 19 9 23 5 3 12
19 16 35 4 17 11 30 16 30 5 0 9 13 9 29 0 16 6 34 14 40 20 17 30 69 17 85
-9 10 -8 15 3 19 9 4 22 22 30 42 12 28 20 35 43 35 33 0 47 9 56 33 4 10 17
17 31 17 38 0 39 16 4 33 -39 19 -63 9 -73 -30 -5 -21 -8 -24 -15 -12 -12 17
-2 50 18 65 12 9 12 15 2 33 -9 18 -17 21 -37 16 -14 -3 -38 -8 -53 -12 -40
-7 -103 -70 -97 -94 6 -24 2 -24 -21 -1 -17 17 -17 19 10 47 24 26 26 31 13
45 -18 20 -19 34 -3 60 15 24 -7 52 -55 70 -18 6 -47 18 -65 26 -31 13 -34 13
-55 -10 -42 -46 -87 -155 -87 -210 0 -63 -11 -111 -21 -94 -5 7 -9 25 -9 40 0
15 -4 29 -8 32 -21 13 5 215 31 244 30 33 22 44 -30 37 -27 -4 -53 -13 -59
-21 -6 -8 -22 -14 -35 -14 -22 1 -23 2 -6 14 9 7 17 20 17 28 0 12 -13 14 -74
10 -41 -2 -87 -2 -101 2 -26 7 -26 8 -10 26 10 11 39 22 68 27 51 8 79 33 36
33 -12 0 -37 11 -55 25 -18 14 -40 25 -48 25 -8 0 -31 14 -49 30 -19 17 -41
30 -49 30 -7 0 -24 7 -37 16 -13 9 -44 18 -70 19 -71 4 -122 15 -167 36 -22
10 -47 19 -55 19 -8 0 -27 9 -44 20 -16 11 -39 20 -51 20 -12 0 -37 11 -56 23
-19 13 -47 27 -62 31 -27 7 -94 59 -186 144 -25 23 -54 45 -65 48 -11 4 -33
17 -48 30 -16 13 -36 24 -45 24 -9 0 -30 9 -47 20 -16 11 -36 20 -44 20 -19 0
-105 65 -169 129 -29 27 -62 53 -74 56 -13 4 -31 14 -40 22 -9 8 -72 34 -140
57 -117 40 -124 44 -135 76 -14 38 -10 206 7 320 6 36 14 169 20 295 11 264
25 337 76 408 19 27 39 58 45 70 5 12 13 29 18 37 5 8 16 31 24 50 8 19 20 46
26 60 32 75 74 212 96 315 32 150 47 179 96 190 36 8 75 54 88 103 6 20 21 60
34 87 25 53 41 108 62 215 7 36 22 107 34 159 25 113 26 179 5 252 -24 80 -51
127 -107 189 -58 63 -77 103 -77 159 0 71 42 221 91 329 16 34 29 66 29 71 0
5 7 22 15 37 8 16 15 39 15 51 0 12 4 24 9 28 5 3 12 20 16 38 17 83 61 199
87 232 4 6 24 30 43 54 82 101 128 226 139 381 15 198 -44 312 -237 455 -37
28 -77 58 -89 67 -11 10 -42 32 -69 49 -27 17 -49 35 -49 40 0 5 -15 26 -33
46 -18 21 -41 50 -50 65 -22 35 -71 61 -100 52 -11 -4 -47 -24 -79 -46 -61
-42 -84 -45 -102 -15 -9 14 -7 21 8 32 19 15 14 35 -10 35 -8 0 -14 4 -14 9 0
18 -32 41 -56 41 -33 0 -30 22 6 43 17 10 30 22 30 26 0 9 77 32 100 29 35 -3
50 3 50 21 0 60 -140 85 -198 36 -41 -34 -79 -32 -152 11 -34 20 -68 33 -76
30 -10 -4 -14 0 -12 12 2 13 -4 17 -30 15 -26 -1 -32 2 -28 14 7 16 -21 48
-67 78 -21 14 -30 15 -41 5 -8 -6 -13 -17 -10 -24 7 -18 -51 -17 -106 1 -26 9
-94 16 -162 18 -125 4 -146 -3 -135 -46 7 -28 -12 -33 -56 -14 -20 8 -59 15
-86 15 -46 0 -52 -3 -66 -30 -14 -26 -21 -30 -58 -30 -24 0 -52 -7 -63 -15
-10 -8 -27 -15 -36 -15 -23 0 -34 -20 -17 -31 7 -4 11 -10 9 -13 -3 -2 -14 2
-25 10 -19 14 -19 15 0 47 26 43 55 66 85 67 14 1 38 7 55 14 l30 12 -34 12
c-51 18 -112 15 -146 -8 -42 -28 -52 -26 -106 20 -34 29 -57 40 -81 40 -18 1
-51 7 -73 15 -22 8 -41 15 -43 15 -1 0 3 -10 10 -22z m848 -73 c0 -8 -7 -15
-15 -15 -8 0 -15 7 -15 15 0 8 7 15 15 15 8 0 15 -7 15 -15z m-1117 -292 c11
-10 -13 -33 -34 -33 -21 0 -26 26 -6 33 18 8 33 8 40 0z m-184 -69 c2 -2 -17
-4 -43 -4 -30 0 -45 4 -41 10 6 9 72 4 84 -6z m1932 -76 c-12 -32 -31 -34 -31
-4 0 19 5 26 20 26 16 0 18 -4 11 -22z m343 6 c34 -34 15 -82 -41 -104 -61
-23 -119 21 -93 70 6 11 19 20 28 20 10 0 27 7 38 15 25 19 49 19 68 -1z
m-2520 -15 c-8 -14 -24 -10 -24 6 0 9 6 12 15 9 8 -4 12 -10 9 -15z m251 -9
c-3 -5 -17 -10 -31 -10 -24 0 -32 -18 -15 -35 5 -6 11 -23 13 -40 3 -30 3 -30
-42 -27 -39 2 -43 1 -28 -10 20 -15 12 -34 -17 -39 -12 -3 -23 -17 -30 -39 -9
-33 -12 -35 -46 -32 -31 3 -42 -2 -67 -29 -26 -28 -33 -31 -46 -20 -9 8 -16
19 -16 27 0 29 -41 43 -106 37 -61 -6 -63 -5 -69 20 -4 14 -4 31 0 36 10 17
55 13 62 -6 5 -14 8 -13 14 5 11 30 26 28 59 -8 28 -30 46 -32 79 -6 7 6 40
11 72 11 46 1 62 5 73 20 13 18 12 20 -12 25 -18 3 -28 12 -30 27 -4 28 27 45
69 36 23 -4 30 -3 25 5 -4 7 -13 12 -21 12 -12 0 -25 21 -25 41 0 5 32 9 71 9
44 0 68 -4 64 -10z m-340 -20 c3 -5 -3 -10 -14 -10 -12 0 -21 5 -21 10 0 6 6
10 14 10 8 0 18 -4 21 -10z m2705 -56 c0 -22 -2 -24 -14 -14 -8 6 -12 18 -9
26 9 23 23 16 23 -12z m-450 -8 c0 -2 3 -11 6 -20 5 -14 -40 -46 -66 -46 -16
0 -12 27 7 50 15 17 53 29 53 16z m-2460 -138 c0 -12 12 -34 26 -49 14 -15 23
-32 20 -38 -10 -15 -49 -14 -71 3 -17 12 -18 17 -7 40 7 15 12 36 12 46 0 11
5 20 10 20 6 0 10 -10 10 -22z m2910 3 c0 -20 -17 -37 -27 -28 -7 8 7 47 18
47 5 0 9 -9 9 -19z m-1275 -131 c3 -5 -3 -10 -15 -10 -12 0 -18 5 -15 10 3 6
10 10 15 10 5 0 12 -4 15 -10z m-1775 -85 c-7 -8 -17 -15 -22 -15 -6 0 -5 7 2
15 7 8 17 15 22 15 6 0 5 -7 -2 -15z m290 -20 c0 -8 -4 -15 -9 -15 -13 0 -22
16 -14 24 11 11 23 6 23 -9z m-37 -59 l25 -23 -38 -12 c-61 -18 -100 -15 -100
9 0 13 9 21 28 25 15 4 34 10 42 15 8 5 15 9 16 9 1 1 13 -10 27 -23z m-564
-331 c-7 -7 -16 -2 -29 15 -25 33 -16 44 15 17 16 -15 21 -25 14 -32z m2567
-866 c3 -6 22 -9 40 -7 19 2 34 0 34 -4 0 -9 -18 -11 -70 -8 -40 2 -45 5 -35
19 8 14 22 14 31 0z m-11 -93 c-43 -14 -51 -13 -40 3 3 6 23 11 43 10 l37 -1
-40 -12z m-69 -122 c-6 -17 8 -49 32 -74 14 -13 13 -15 -13 -18 -21 -3 -36 4
-58 27 -29 28 -30 32 -17 56 15 29 67 38 56 9z m14 -439 c0 -8 -7 -15 -15 -15
-16 0 -20 12 -8 23 11 12 23 8 23 -8z m204 -24 c4 -5 3 -16 0 -24 -5 -14 -8
-13 -23 1 -10 9 -16 20 -14 25 6 10 31 9 37 -2z m-115 -31 c7 -20 17 -30 30
-30 12 0 21 -4 21 -9 0 -5 9 -11 20 -14 34 -9 23 -43 -25 -84 -29 -24 -45 -45
-45 -60 0 -26 -15 -31 -24 -8 -8 22 -34 18 -41 -5 -3 -11 -12 -20 -19 -20 -17
0 -56 38 -56 55 0 8 -10 23 -22 34 -21 20 -21 21 -3 42 11 12 19 36 20 56 0
45 29 68 49 41 18 -24 31 -22 50 7 22 33 32 32 45 -5z m-581 -612 c7 -7 12
-18 12 -25 0 -39 -154 -60 -192 -26 -32 28 -20 34 56 27 69 -6 73 -5 79 15 6
23 27 27 45 9z m-378 -45 c0 -14 -34 -43 -52 -43 -21 0 -22 4 -8 31 10 17 60
28 60 12z m-840 -518 c0 -29 -16 -41 -24 -19 -8 21 3 56 15 49 5 -4 9 -17 9
-30z m2456 -1419 c47 -50 94 -129 94 -158 0 -28 -18 -58 -35 -58 -10 0 -15 11
-15 33 -1 74 -59 175 -116 202 -42 20 -43 25 -2 25 25 0 41 -10 74 -44z
m-1196 -521 c0 -8 -4 -15 -10 -15 -5 0 -10 7 -10 15 0 8 5 15 10 15 6 0 10 -7
10 -15z m1170 -43 c0 -12 -44 -62 -53 -62 -4 0 5 16 20 35 30 37 33 40 33 27z
m-1240 -27 c0 -10 -10 -15 -27 -15 -27 1 -27 1 -9 15 25 19 36 19 36 0z m2805
-579 c-12 -8 -16 -31 -18 -89 -1 -43 -7 -77 -12 -77 -6 0 -10 16 -10 34 0 19
-3 37 -7 42 -4 4 -3 13 3 20 8 9 4 21 -13 44 l-23 32 33 29 c17 16 32 37 32
47 0 10 6 24 13 31 10 10 13 1 15 -44 2 -43 -1 -60 -13 -69z m-697 92 c18 -18
15 -38 -6 -38 -11 0 -24 11 -30 25 -10 22 -9 25 6 25 10 0 23 -5 30 -12z m959
-135 c-2 -54 0 -123 5 -153 12 -68 57 -200 69 -200 5 0 9 -44 10 -97 0 -99 11
-243 28 -363 27 -191 41 -282 47 -292 13 -20 33 -132 34 -180 l0 -48 -43 0
c-35 0 -46 4 -56 23 -8 15 -9 31 -4 47 6 15 5 42 -2 68 l-11 43 -33 -45 c-23
-33 -39 -46 -57 -46 -19 0 -24 5 -24 25 0 14 8 42 18 63 23 48 21 155 -5 209
-16 32 -17 43 -7 73 8 24 18 34 30 33 10 -1 27 3 37 9 18 9 19 18 13 127 -5
100 -13 165 -30 258 -2 12 -9 37 -14 55 -5 18 -17 71 -27 118 -9 47 -22 95
-28 107 -12 26 -3 182 12 210 5 10 12 26 15 36 3 9 10 17 17 17 8 0 10 -29 6
-97z m-1237 0 c0 -19 -3 -24 -10 -17 -6 6 -8 18 -4 27 9 24 14 21 14 -10z
m780 -550 c0 -42 -7 -40 -20 6 -7 24 -6 31 6 31 10 0 14 -12 14 -37z m-823
-4683 c-7 -26 -17 -40 -27 -40 -25 0 -30 10 -17 34 36 65 60 69 44 6z m-37
-144 c0 -7 -9 -16 -20 -19 -19 -5 -28 12 -13 26 11 12 33 7 33 -7z m-50 -97
c0 -12 -8 -23 -19 -26 -10 -3 -23 -14 -29 -26 -10 -20 -11 -19 -11 14 -1 38
13 59 41 59 12 0 18 -7 18 -21z m190 -834 c0 -16 -6 -25 -15 -25 -15 0 -21 31
-8 43 13 14 23 6 23 -18z"/>
<path d="M7067 10261 c-29 -6 -67 -54 -54 -68 12 -11 80 -4 94 10 11 12 7 68
-6 66 -3 -1 -19 -4 -34 -8z"/>
<path d="M5782 13093 c5 -25 28 -28 28 -4 0 12 -6 21 -16 21 -9 0 -14 -7 -12
-17z"/>
<path d="M5716 11793 c-3 -3 -6 -12 -6 -20 0 -15 36 -18 45 -4 7 12 -29 33
-39 24z"/>
<path d="M6475 11539 c-10 -15 1 -23 20 -15 9 3 13 10 10 16 -8 13 -22 13 -30
-1z"/>
<path d="M5535 10875 c-63 -35 -122 -96 -111 -114 11 -18 19 -14 84 50 35 33
76 65 93 71 16 5 29 14 29 19 0 17 -35 8 -95 -26z"/>
<path d="M4961 10431 c-8 -13 -8 -28 -1 -46 5 -14 10 -48 10 -75 0 -27 4 -52
10 -55 6 -4 9 15 9 49 -1 31 4 62 10 70 17 21 10 70 -11 74 -9 2 -21 -6 -27
-17z"/>
<path d="M4974 10135 c-4 -9 0 -24 10 -33 15 -15 16 -14 16 10 0 32 -17 46
-26 23z"/>
<path d="M6190 10013 c-27 -10 -50 -36 -50 -55 0 -25 44 -42 71 -27 11 5 51
13 90 16 38 3 71 9 73 12 2 3 -5 17 -16 31 -17 21 -29 25 -86 27 -37 1 -74 0
-82 -4z"/>
<path d="M5912 9979 c-13 -5 -22 -15 -20 -21 7 -20 29 -15 46 10 16 24 10 26
-26 11z"/>
<path d="M5413 9350 c3 -13 -1 -21 -14 -25 -44 -14 -9 -44 44 -38 42 6 48 19
13 33 -18 7 -23 14 -19 29 4 15 1 21 -12 21 -12 0 -16 -6 -12 -20z"/>
<path d="M5436 9241 c-14 -15 -15 -23 -6 -40 6 -12 16 -21 23 -21 21 0 58 40
55 58 -5 25 -51 27 -72 3z"/>
<path d="M4866 7945 c-11 -8 -16 -18 -13 -22 4 -3 16 3 27 15 23 25 15 29 -14
7z"/>
<path d="M5800 6805 c-6 -8 -9 -19 -5 -25 8 -12 45 -13 64 -1 12 8 12 12 2 25
-17 20 -45 21 -61 1z"/>
<path d="M8447 6414 c-4 -4 -4 -16 -2 -28 4 -15 -7 -34 -35 -65 -23 -25 -40
-55 -40 -68 0 -28 1 -28 48 -4 59 30 78 56 65 91 -6 15 -8 40 -6 54 5 25 -13
37 -30 20z"/>
<path d="M8321 6362 c-16 -31 -24 -89 -12 -96 7 -5 11 4 11 22 0 16 7 35 15
42 17 14 21 50 5 50 -5 0 -14 -8 -19 -18z"/>
<path d="M8297 6223 c-3 -5 -8 -26 -12 -48 -5 -35 -4 -37 6 -20 7 11 19 26 26
34 8 7 12 18 10 24 -4 14 -24 20 -30 10z"/>
<path d="M7265 6115 c-5 -2 -22 -6 -37 -9 -22 -5 -28 -12 -28 -32 0 -14 7 -27
16 -31 15 -5 15 -8 2 -17 -17 -13 -30 -69 -21 -92 3 -8 17 -20 30 -25 20 -8
24 -14 19 -34 -4 -15 0 -34 9 -49 9 -13 13 -31 9 -40 -10 -26 4 -63 26 -69 11
-3 23 -7 26 -9 4 -1 7 41 8 94 2 88 0 98 -18 106 -20 9 -20 9 2 21 12 6 22 19
22 28 0 9 8 25 17 35 18 20 14 26 -22 42 -5 3 5 18 24 35 24 21 30 32 20 35
-22 7 -93 14 -104 11z"/>
<path d="M3697 6083 c-10 -16 3 -67 14 -56 5 5 5 22 1 38 -5 18 -11 25 -15 18z"/>
<path d="M3485 6060 c-10 -31 -4 -289 8 -335 11 -45 13 -252 3 -371 -18 -210
-49 -292 -108 -280 -32 6 -35 0 -12 -32 9 -13 13 -29 11 -37 -12 -30 31 -259
62 -330 4 -11 13 -38 19 -60 6 -22 20 -67 32 -100 13 -36 19 -73 16 -92 -3
-21 0 -38 9 -47 9 -8 15 -44 18 -93 5 -83 33 -168 61 -179 8 -3 25 5 37 17 23
23 23 26 24 279 0 511 -40 1195 -74 1259 -6 11 -11 35 -11 54 0 19 -9 79 -21
133 -12 55 -26 128 -33 163 -11 66 -29 88 -41 51z"/>
<path d="M6845 6068 c-11 -6 -41 -29 -67 -51 -52 -42 -64 -74 -25 -63 12 3 32
6 44 6 16 0 33 16 58 52 19 29 35 56 35 60 0 11 -22 9 -45 -4z"/>
<path d="M6595 6039 c-10 -16 4 -61 18 -56 19 6 22 67 3 67 -8 0 -18 -5 -21
-11z"/>
<path d="M7004 6015 c-4 -8 -14 -15 -23 -15 -20 0 -61 -40 -61 -58 0 -25 34
-10 76 34 24 25 44 47 44 50 0 11 -31 2 -36 -11z"/>
<path d="M3710 5911 c0 -22 5 -43 10 -46 6 -3 10 -26 10 -51 0 -32 4 -44 14
-44 20 0 20 97 0 128 -12 18 -13 26 -3 38 9 11 8 14 -10 14 -18 0 -21 -6 -21
-39z"/>
<path d="M6720 5856 c-25 -13 -56 -28 -70 -34 -14 -5 -42 -17 -63 -26 -21 -9
-44 -16 -53 -16 -15 0 -114 -49 -114 -56 0 -3 7 -15 15 -28 10 -16 29 -26 56
-30 28 -4 42 -13 48 -28 4 -11 23 -26 41 -32 42 -14 49 -33 16 -42 -14 -3 -26
-10 -26 -14 0 -5 -9 -12 -20 -15 -22 -7 -28 -35 -7 -35 6 0 1 -6 -13 -13 -83
-44 -96 -64 -57 -90 17 -12 19 -18 10 -28 -10 -10 -14 -9 -19 4 -5 13 -10 14
-30 5 -23 -11 -41 -44 -30 -55 3 -4 17 -1 31 5 28 13 80 -1 89 -24 3 -8 -5
-24 -19 -36 -14 -12 -25 -28 -25 -35 0 -8 -16 -23 -35 -34 -42 -25 -43 -32
-10 -47 14 -6 25 -16 25 -22 0 -5 7 -10 15 -10 9 0 21 -12 27 -26 9 -19 17
-24 32 -19 68 19 75 18 105 -14 30 -32 56 -40 63 -20 2 7 19 17 38 23 49 16
51 36 2 36 -43 0 -62 21 -41 46 15 19 2 71 -21 77 -11 3 -21 18 -25 38 -4 19
-12 39 -17 46 -7 8 0 21 23 41 31 27 35 29 55 15 16 -10 36 -12 69 -8 49 8 71
31 60 65 -4 12 -2 20 4 20 6 0 11 -7 11 -15 0 -25 17 -17 26 13 4 15 9 47 9
72 2 44 19 110 36 140 55 95 57 112 15 157 l-34 37 -27 -32 c-42 -50 -63 -42
-75 28 -7 44 -29 48 -90 16z m20 -238 c0 -15 -33 -38 -56 -38 -17 0 -24 5 -24
20 0 14 7 20 24 20 13 0 27 8 30 17 6 15 8 15 16 3 6 -8 10 -18 10 -22z m-82
-229 c5 -25 -42 -69 -67 -62 -25 6 -26 14 -5 54 12 24 21 30 42 27 15 -2 28
-10 30 -19z"/>
<path d="M3050 5624 c0 -3 9 -19 21 -35 21 -30 43 -31 32 -1 -9 26 -53 56 -53
36z"/>
<path d="M3750 5555 c0 -9 5 -15 11 -13 6 2 11 8 11 13 0 5 -5 11 -11 13 -6 2
-11 -4 -11 -13z"/>
<path d="M8117 5539 c-19 -11 -23 -49 -6 -66 7 -7 3 -19 -15 -41 -28 -33 -33
-52 -13 -52 25 0 34 17 46 89 6 40 10 75 9 77 -2 1 -11 -2 -21 -7z"/>
<path d="M8788 5519 c-24 -14 -23 -39 2 -39 20 0 44 32 33 44 -8 8 -15 7 -35
-5z"/>
<path d="M3003 5433 c-19 -7 -16 -26 7 -46 17 -14 19 -24 13 -77 -6 -58 -5
-60 21 -70 23 -8 25 -13 16 -29 -12 -24 -4 -48 22 -62 19 -10 19 -11 2 -30
-17 -19 -16 -21 13 -63 21 -30 28 -47 21 -54 -15 -15 -2 -30 35 -37 47 -10
144 -121 124 -141 -7 -7 -61 21 -76 40 -15 18 -37 21 -46 7 -6 -11 8 -74 37
-168 13 -41 17 -74 13 -94 -7 -29 -2 -36 53 -88 33 -31 65 -66 71 -78 10 -21
8 -24 -25 -38 -20 -8 -43 -15 -51 -15 -17 0 -48 -28 -40 -36 3 -3 17 2 31 11
24 16 26 16 32 0 4 -9 2 -21 -5 -28 -14 -14 -15 -54 -1 -62 15 -9 41 -75 34
-86 -3 -5 4 -17 15 -27 12 -10 22 -31 23 -52 3 -31 0 -35 -22 -35 -17 0 -26 6
-28 20 -2 11 -10 25 -17 30 -7 6 -15 24 -17 40 -2 24 -10 30 -43 39 -33 10
-41 16 -43 39 -2 15 -14 39 -28 54 l-25 27 -20 -20 -20 -20 21 -26 20 -26 -33
-29 c-23 -20 -32 -37 -32 -58 0 -39 9 -52 43 -60 15 -3 42 -19 61 -35 l34 -29
-26 -12 c-17 -7 -28 -23 -33 -43 -6 -26 -2 -34 21 -51 16 -11 40 -30 54 -42
25 -20 25 -22 8 -40 -19 -22 -23 -43 -7 -43 6 0 8 -11 4 -25 -5 -21 -3 -25 15
-25 12 0 21 -6 21 -15 0 -8 -9 -15 -20 -15 -25 0 -26 -9 -3 -25 16 -12 16 -17
5 -48 -16 -44 -7 -67 30 -74 33 -6 47 -28 29 -46 -6 -6 -32 -10 -57 -8 -45 3
-45 2 -42 -26 2 -23 8 -28 31 -28 22 1 30 -6 39 -32 7 -18 20 -35 29 -38 10
-4 21 -16 25 -28 4 -12 15 -34 26 -49 22 -32 17 -48 -18 -48 -40 0 -28 -27 29
-63 51 -34 96 -90 78 -101 -5 -3 -14 1 -21 9 -7 8 -31 20 -54 26 -22 6 -61 23
-86 38 -25 15 -58 31 -75 35 -40 10 -125 26 -150 29 -26 3 -27 -26 -1 -31 10
-2 39 -17 65 -33 25 -16 54 -32 63 -35 11 -4 19 -22 23 -55 8 -55 24 -63 49
-24 9 14 25 25 35 25 38 0 35 -9 -30 -87 -5 -7 -21 -13 -34 -13 -31 0 -32 -14
-3 -34 15 -11 26 -12 39 -6 44 24 147 -7 132 -40 -4 -8 -6 -32 -5 -52 1 -35
-1 -38 -26 -38 -15 1 -45 7 -67 15 -22 8 -41 15 -43 15 -2 0 4 -10 12 -22 9
-12 16 -31 16 -42 0 -19 8 -30 63 -86 15 -15 27 -37 27 -47 0 -22 65 -78 108
-94 29 -11 89 -76 79 -86 -12 -12 -97 9 -131 32 -29 20 -52 25 -128 29 -51 3
-103 8 -115 12 -34 10 -98 -5 -84 -19 14 -14 15 -54 1 -62 -5 -3 -10 -14 -10
-24 0 -28 70 -36 89 -10 17 24 69 25 110 2 17 -10 31 -22 31 -26 0 -4 21 -17
48 -29 35 -16 42 -22 28 -26 -11 -2 -35 1 -55 6 -49 15 -121 22 -121 12 0 -14
53 -85 88 -118 27 -25 33 -35 24 -44 -9 -9 -25 -8 -65 4 -103 32 -320 61 -522
68 -110 5 -222 13 -250 18 -117 23 -318 35 -386 24 -94 -17 -142 -15 -360 13
-302 39 -285 36 -471 91 -26 8 -54 14 -63 14 -21 0 -107 26 -165 50 -25 10
-52 21 -60 24 -8 2 20 5 62 5 42 1 83 4 92 7 19 7 21 35 5 51 -15 15 20 74 55
93 18 9 23 17 17 28 -5 9 -4 28 1 44 6 15 7 36 4 44 -9 23 -72 14 -134 -19
-41 -21 -48 -30 -59 -70 -14 -56 -20 -67 -38 -67 -22 0 -38 -39 -30 -77 5 -30
4 -34 -12 -30 -50 15 -187 18 -231 6 -52 -14 -97 -41 -111 -68 -20 -36 93
-133 244 -209 119 -60 249 -122 257 -122 4 0 30 -14 58 -30 28 -17 57 -30 65
-30 19 0 88 -36 155 -81 116 -78 381 -199 436 -199 11 0 24 -4 30 -9 5 -5 32
-11 59 -13 l50 -3 -1 55 c-7 250 -6 328 3 345 16 30 112 74 199 92 69 14 104
14 293 3 313 -18 434 -33 576 -72 55 -16 60 -19 41 -30 -27 -15 -18 -39 34
-89 31 -30 48 -53 44 -62 -3 -9 4 -21 16 -30 20 -14 21 -19 11 -51 -6 -20 -16
-53 -22 -74 -6 -20 -18 -45 -26 -54 -9 -10 -12 -22 -7 -30 12 -19 5 -48 -17
-77 -14 -17 -16 -28 -9 -35 5 -5 10 -20 10 -32 0 -12 6 -27 14 -33 13 -11 12
-15 -5 -32 -22 -22 -24 -41 -8 -72 7 -11 13 -41 15 -65 1 -24 8 -50 14 -58 7
-7 9 -25 6 -39 -5 -19 0 -30 17 -45 33 -29 54 -94 38 -114 -20 -24 -15 -29
109 -91 41 -21 90 -71 90 -93 0 -5 10 -17 21 -28 12 -10 32 -36 46 -57 13 -21
31 -46 41 -55 9 -10 46 -54 81 -97 35 -44 70 -85 78 -91 7 -6 13 -16 13 -22 0
-6 6 -15 13 -19 6 -4 27 -26 45 -48 18 -22 41 -49 51 -60 10 -11 38 -45 62
-75 25 -30 57 -68 72 -84 31 -33 34 -46 11 -46 -17 0 -64 -44 -64 -60 0 -5
-10 -10 -22 -12 -16 -2 -22 -9 -20 -20 2 -12 -4 -18 -18 -18 -17 0 -20 -6 -20
-40 0 -55 23 -66 69 -32 l34 27 -7 -38 c-4 -21 -10 -45 -13 -53 -4 -12 2 -13
36 -8 37 6 43 4 48 -15 5 -20 11 -21 137 -21 142 1 166 8 166 52 0 14 -16 43
-36 66 -20 24 -34 49 -31 57 4 9 -4 16 -23 20 -28 6 -90 65 -90 86 0 5 -12 14
-26 19 -14 6 -23 14 -19 20 3 5 -6 17 -20 26 -21 14 -24 22 -19 48 4 23 1 36
-10 45 -21 17 -21 41 0 41 8 0 22 6 30 14 11 11 21 12 47 4 54 -17 72 -15 72
7 0 17 -8 21 -55 25 l-55 5 3 39 4 39 -38 -8 c-50 -9 -90 -30 -98 -51 -6 -15
-8 -15 -27 2 -14 13 -19 28 -17 51 2 23 -3 37 -17 47 -18 13 -19 18 -8 45 9
26 9 32 -5 40 -14 8 -15 13 -5 30 9 14 9 22 2 26 -6 4 -9 17 -8 28 1 12 -1 30
-6 40 -4 10 -5 31 -1 48 4 22 0 35 -14 49 -11 11 -24 20 -29 20 -5 0 -11 17
-13 38 -4 28 0 40 14 50 27 20 22 29 -22 36 -53 8 -77 54 -61 114 6 22 18 45
26 52 8 7 15 20 15 29 0 19 -74 53 -97 44 -13 -5 -15 -3 -8 13 9 23 8 70 -4
93 -4 9 -8 162 -9 341 0 243 3 344 14 400 8 41 14 94 14 117 0 24 7 60 14 80
11 28 17 111 21 318 4 154 8 307 10 340 18 323 17 420 -4 510 -12 50 -26 111
-31 138 -5 26 -13 62 -19 80 -6 17 -18 68 -27 112 -9 44 -22 100 -29 125 -19
63 -35 128 -44 175 -5 22 -18 76 -31 120 -12 44 -29 109 -37 145 -16 70 -34
148 -52 219 -7 24 -18 56 -26 72 -8 15 -15 38 -15 51 0 13 -12 61 -26 108 -14
47 -28 96 -31 110 -7 34 -44 131 -60 155 -7 11 -13 28 -13 38 0 9 -7 20 -15
23 -9 4 -15 19 -15 35 0 16 -4 29 -10 29 -5 0 -10 -9 -10 -20 0 -11 -4 -20
-10 -20 -5 0 -10 4 -10 9 0 5 -19 27 -41 49 l-42 39 19 26 c20 28 39 34 49 17
10 -16 25 -11 25 8 0 28 -10 33 -40 17 -24 -12 -28 -12 -43 6 -16 18 -47 23
-74 12z m404 -1437 c24 -21 26 -28 16 -44 -9 -16 -8 -23 9 -40 11 -11 18 -26
16 -33 -3 -8 -11 -5 -27 12 -32 33 -81 105 -81 118 0 19 38 12 67 -13z m91
-194 c2 -15 -2 -22 -12 -22 -9 0 -16 4 -16 9 0 5 -3 17 -6 26 -5 13 -2 16 12
13 11 -2 20 -13 22 -26z m-28 -1462 c0 -13 -30 -13 -50 0 -11 7 -7 10 18 10
17 0 32 -4 32 -10z"/>
<path d="M3275 5359 c-4 -12 -2 -26 4 -32 6 -6 11 -21 11 -34 0 -29 26 -30 33
-2 10 37 -4 89 -24 89 -10 0 -21 -9 -24 -21z"/>
<path d="M8045 5267 c-4 -10 -5 -21 -1 -24 10 -10 18 4 13 24 -4 17 -4 17 -12
0z"/>
<path d="M4120 5256 c0 -9 7 -16 16 -16 9 0 14 5 12 12 -6 18 -28 21 -28 4z"/>
<path d="M3317 5233 c-6 -11 11 -53 21 -53 17 0 20 12 10 36 -11 24 -23 30
-31 17z"/>
<path d="M8879 5204 c-11 -14 -11 -18 6 -30 30 -23 47 -17 43 13 -4 32 -29 41
-49 17z"/>
<path d="M4071 5142 c-22 -37 -44 -82 -47 -100 -4 -17 -11 -32 -15 -32 -5 0
-15 -12 -21 -27 -7 -16 -25 -43 -40 -61 -43 -50 -38 -58 37 -60 57 -2 65 0 65
16 0 11 9 27 20 37 10 9 24 34 31 54 6 20 25 67 42 105 29 63 30 69 14 81 -9
7 -17 22 -17 34 0 40 -29 21 -69 -47z"/>
<path d="M6358 5052 c-14 -9 -38 -32 -53 -49 -15 -18 -33 -33 -41 -33 -33 0
-41 -41 -39 -202 2 -86 6 -161 10 -167 7 -13 17 -127 15 -185 0 -21 4 -44 10
-51 7 -9 7 -21 0 -41 -9 -22 -8 -31 3 -39 23 -17 55 -116 53 -166 -2 -31 -9
-52 -24 -67 -26 -26 -29 -67 -6 -80 11 -6 13 -11 5 -16 -14 -9 -15 -46 -1 -46
7 0 7 -6 0 -19 -13 -25 -13 -88 0 -96 6 -3 7 -17 4 -31 -4 -17 -2 -24 9 -24 8
0 17 7 21 15 3 8 12 15 20 15 22 0 29 19 14 37 -12 15 -10 16 15 9 26 -6 28
-5 22 15 -7 20 -5 21 20 15 16 -4 41 -2 57 5 30 12 38 29 13 29 -8 0 -15 -4
-15 -10 0 -5 -11 -10 -25 -10 -14 0 -25 5 -25 10 0 6 11 10 25 10 15 0 25 6
25 14 0 19 25 27 39 13 8 -8 11 -7 11 6 0 9 7 17 14 17 8 0 21 12 28 27 9 18
25 30 48 36 19 4 41 16 48 25 11 14 13 14 27 -4 8 -10 15 -27 15 -36 0 -18 26
-48 41 -48 17 0 9 18 -11 23 -13 3 -18 11 -14 20 3 8 13 13 23 10 20 -5 66 49
77 91 6 24 4 26 -30 26 -20 0 -36 3 -36 7 0 3 14 18 32 33 39 33 31 55 -18 45
-30 -5 -35 -3 -43 19 -6 13 -14 27 -20 30 -5 4 -8 38 -7 79 2 57 -1 77 -15 96
-25 32 -101 79 -135 83 -21 2 -36 15 -58 51 -32 51 -27 79 9 52 147 -111 169
-121 180 -84 7 20 7 19 30 -5 13 -15 32 -26 41 -26 15 0 16 9 10 73 l-8 72 31
-29 c19 -18 35 -26 40 -20 13 14 1 174 -14 174 -7 0 -11 -15 -11 -42 1 -37 -2
-43 -21 -46 -16 -2 -26 5 -37 26 -8 16 -31 48 -50 71 -21 25 -36 54 -36 68 0
14 -8 32 -17 40 -16 12 -12 13 30 7 50 -7 56 -1 32 33 -10 14 -12 24 -5 28 20
12 9 21 -26 22 -24 1 -45 10 -63 27 -15 14 -36 26 -47 26 -10 0 -28 7 -38 15
-11 8 -30 15 -42 15 -12 0 -24 7 -28 15 -7 20 -54 18 -88 -3z m212 -302 c0 -5
15 -13 33 -18 28 -7 33 -13 41 -55 14 -69 -3 -77 -42 -22 -18 25 -32 52 -32
60 0 7 -4 17 -10 20 -5 3 -10 10 -10 16 0 5 5 9 10 9 6 0 10 -4 10 -10z m-182
-119 c5 -35 -9 -42 -53 -27 -52 18 -58 43 -13 49 53 6 63 3 66 -22z m47 -271
c3 -5 15 -10 25 -10 26 0 102 -40 118 -62 7 -10 26 -25 42 -33 16 -8 32 -25
36 -37 4 -13 11 -26 17 -30 16 -10 -20 -78 -41 -78 -36 0 -68 25 -107 84 -22
33 -57 80 -77 105 -37 45 -48 71 -29 71 6 0 13 -4 16 -10z m-29 -222 c-3 -13
-6 -37 -6 -54 0 -19 -10 -41 -25 -58 -14 -15 -25 -31 -25 -37 0 -5 -7 -9 -15
-9 -22 0 -18 11 15 44 29 29 48 85 35 105 -8 13 2 31 17 31 6 0 8 -10 4 -22z
m60 -80 l-14 -33 -1 41 c-1 45 8 63 21 40 5 -9 3 -28 -6 -48z m-26 -42 c0 -8
-4 -18 -10 -21 -5 -3 -10 3 -10 14 0 12 5 21 10 21 6 0 10 -6 10 -14z"/>
<path d="M7463 4903 c-12 -2 -27 -11 -33 -19 -7 -8 -18 -14 -26 -14 -17 0 -27
-17 -19 -30 5 -8 11 -7 20 0 17 14 38 3 31 -16 -9 -22 26 -4 62 33 17 19 32
39 32 44 0 9 -26 10 -67 2z"/>
<path d="M6744 4825 c-3 -8 -3 -19 1 -25 11 -17 35 -11 35 9 0 23 -29 36 -36
16z"/>
<path d="M4032 4794 c-25 -11 -32 -19 -27 -33 3 -11 1 -22 -5 -26 -5 -3 -10
-16 -10 -28 -1 -24 -63 -155 -98 -204 -12 -17 -22 -40 -22 -50 0 -10 -5 -24
-11 -30 -15 -15 -23 -109 -10 -118 6 -3 8 -19 4 -35 -4 -25 -2 -30 13 -30 12
0 15 -3 8 -8 -19 -13 -25 -59 -9 -72 13 -11 12 -15 -4 -36 -16 -20 -18 -35
-14 -87 3 -34 12 -73 21 -87 8 -13 18 -38 22 -55 8 -41 51 -48 68 -10 6 14 16
25 21 25 6 0 9 18 8 39 -1 26 5 47 16 59 19 20 14 49 -11 68 -12 8 -11 12 2
24 15 12 15 15 -4 35 -21 22 -21 23 -2 36 23 17 65 96 57 109 -8 13 14 129 30
160 7 14 12 49 10 80 -1 30 4 75 11 100 17 57 17 98 -1 130 -12 22 -11 27 2
43 15 16 14 17 -8 16 -13 0 -39 -7 -57 -15z"/>
<path d="M8126 4794 c-10 -26 -7 -34 14 -34 11 0 20 4 20 9 0 17 -12 41 -20
41 -4 0 -11 -7 -14 -16z"/>
<path d="M4416 4721 c-8 -13 4 -42 15 -35 12 7 12 44 0 44 -6 0 -12 -4 -15 -9z"/>
<path d="M8130 4701 c0 -16 5 -33 10 -36 6 -3 10 -24 10 -46 0 -28 4 -39 13
-36 6 2 11 15 10 28 -2 13 -3 33 -3 44 0 11 1 31 3 45 1 19 -3 26 -20 28 -20
3 -23 -1 -23 -27z"/>
<path d="M7750 4677 c-37 -30 -100 -112 -100 -130 0 -18 2 -19 18 -5 9 8 25
18 35 21 15 6 16 4 7 -13 -6 -11 -17 -20 -25 -20 -9 0 -15 -10 -15 -25 0 -20
5 -25 25 -25 36 0 31 -16 -15 -45 -29 -18 -40 -32 -40 -50 0 -14 4 -25 9 -25
7 0 31 -51 31 -65 0 -2 -11 -6 -25 -9 -14 -4 -25 -13 -25 -21 0 -12 11 -14 53
-11 28 2 63 9 77 14 14 6 33 13 43 16 19 6 22 23 8 45 -8 12 -12 12 -25 2 -11
-9 -16 -10 -16 -2 0 6 4 11 8 11 22 0 29 47 17 122 -6 42 -9 81 -6 86 3 6 4
40 3 76 -4 67 -12 78 -42 53z"/>
<path d="M1503 4615 c-3 -9 -18 -22 -34 -31 -36 -18 -38 -36 -2 -32 23 3 60
44 62 71 2 14 -20 7 -26 -8z"/>
<path d="M4401 4611 c-12 -12 -21 -24 -22 -28 -11 -82 -1 -109 28 -80 19 19
37 107 24 120 -5 5 -17 1 -30 -12z"/>
<path d="M2880 4600 c0 -11 7 -23 15 -26 8 -4 15 -15 15 -25 0 -12 7 -19 19
-19 10 0 33 -3 50 -6 23 -5 31 -3 31 8 0 17 -41 58 -58 58 -7 0 -12 7 -12 15
0 10 -10 15 -30 15 -23 0 -30 -4 -30 -20z"/>
<path d="M8150 4515 c0 -8 5 -15 10 -15 6 0 10 7 10 15 0 8 -4 15 -10 15 -5 0
-10 -7 -10 -15z"/>
<path d="M7253 4500 c-23 -9 -32 -30 -13 -30 6 0 10 4 10 8 0 5 10 14 23 20
27 13 11 14 -20 2z"/>
<path d="M4362 4427 c-18 -18 -32 -36 -32 -40 0 -12 25 -8 59 9 23 12 31 22
29 37 -5 32 -21 30 -56 -6z"/>
<path d="M6765 4451 c-3 -6 4 -15 15 -21 11 -6 20 -17 20 -24 0 -8 12 -21 26
-31 20 -13 25 -24 24 -53 -3 -57 -1 -62 20 -62 22 0 27 15 9 26 -15 9 -3 63
26 118 19 36 21 46 10 46 -8 0 -17 -11 -21 -25 -8 -33 -40 -51 -60 -34 -8 6
-14 15 -14 20 0 11 -32 49 -42 49 -4 0 -9 -4 -13 -9z"/>
<path d="M3100 4415 c-7 -8 -18 -15 -24 -15 -7 0 -29 -16 -51 -35 -28 -26 -35
-39 -27 -47 8 -8 15 -8 26 1 10 8 16 9 21 1 8 -13 35 -13 35 0 0 25 36 50 72
50 42 0 51 15 16 26 -13 3 -30 13 -39 20 -14 13 -18 12 -29 -1z"/>
<path d="M7951 4273 c-8 -39 -15 -176 -17 -322 -3 -140 -8 -259 -13 -265 -5
-6 -7 -33 -6 -61 1 -27 -2 -71 -7 -97 -9 -46 -11 -48 -43 -48 -19 0 -37 -5
-41 -11 -8 -14 -55 -2 -70 19 -11 15 -14 14 -38 -8 -14 -14 -26 -32 -26 -41 0
-9 -7 -22 -15 -29 -21 -17 -19 -47 5 -77 34 -43 11 -45 -37 -3 -25 22 -49 40
-53 40 -4 0 -13 -18 -20 -40 -11 -34 -11 -42 4 -64 9 -14 16 -36 16 -49 0 -13
7 -44 16 -69 21 -62 16 -122 -11 -126 -11 -2 -61 -24 -112 -49 -55 -28 -98
-43 -108 -39 -9 3 -24 24 -32 46 -9 22 -21 40 -27 40 -18 -1 -46 -46 -48 -82
l-3 -33 103 -1 c76 -1 107 -5 120 -17 9 -8 28 -18 42 -22 l25 -8 -30 -11 c-36
-13 -83 -56 -61 -56 7 0 19 -6 25 -14 9 -11 5 -16 -20 -25 -22 -7 -29 -15 -25
-26 10 -27 -6 -74 -34 -103 -34 -34 -84 -130 -105 -200 -3 -12 -15 -27 -26
-32 -10 -6 -19 -17 -19 -26 0 -8 -7 -26 -16 -39 -22 -33 -15 -81 10 -77 19 4
19 3 3 -20 -40 -54 -57 -84 -57 -100 0 -17 -44 -105 -61 -122 -5 -6 -9 -17 -9
-25 0 -8 -10 -25 -22 -38 l-21 -23 23 -25 24 -25 -32 -30 c-18 -16 -32 -38
-32 -48 0 -11 -7 -25 -15 -32 -8 -7 -15 -21 -15 -31 0 -17 5 -18 43 -13 23 3
54 15 69 25 26 18 68 26 68 12 0 -3 -7 -15 -17 -25 -16 -18 -10 -23 25 -19 8
1 19 -3 27 -9 10 -8 20 -4 44 15 17 15 36 23 42 19 8 -4 9 3 4 25 -5 25 -3 32
12 38 10 3 25 13 34 22 14 15 14 17 0 29 -14 11 -12 15 16 40 39 33 54 70 58
141 2 30 11 61 19 70 9 10 16 20 16 24 0 3 25 32 55 63 30 32 55 61 55 65 0
13 -94 99 -108 99 -8 0 -25 9 -39 20 -14 11 -32 20 -39 20 -20 0 -17 14 6 35
17 15 24 16 45 7 19 -9 43 -8 103 3 42 8 95 15 116 17 49 4 58 23 15 32 l-32
6 27 25 c28 25 33 49 15 61 -8 5 -6 10 5 16 9 5 16 22 16 37 0 16 7 34 15 41
8 7 15 18 15 25 0 7 11 20 25 29 14 9 25 23 25 32 0 8 11 25 25 38 14 13 25
30 25 39 0 9 8 21 18 26 22 12 86 146 77 161 -3 5 -1 18 4 28 6 11 13 84 16
163 3 79 8 158 10 174 7 38 -9 65 -27 47 -6 -6 -16 -12 -20 -12 -13 0 -9 38 6
53 16 15 50 182 42 203 -3 7 -1 27 4 44 7 24 5 38 -7 56 -17 27 -19 128 -4
222 5 35 4 62 -5 89 -20 56 -17 83 11 104 25 20 24 49 -1 49 -22 0 -34 33 -19
54 13 17 10 46 -4 46 -4 0 -13 -30 -20 -67z m-128 -839 c9 -3 13 -13 10 -25
-4 -14 0 -19 16 -19 28 0 36 -23 21 -61 -11 -26 -11 -32 1 -40 11 -6 11 -12 3
-27 -10 -15 -8 -21 7 -30 18 -11 18 -15 5 -46 -8 -19 -10 -39 -6 -47 5 -7 4
-21 -1 -30 -5 -11 -5 -27 0 -41 10 -28 -1 -63 -26 -77 -16 -8 -16 -13 -5 -31
12 -19 11 -22 -7 -27 -12 -3 -21 -9 -21 -14 0 -15 -20 -10 -27 7 -4 11 2 23
18 35 21 16 22 18 6 24 -27 11 -20 43 14 61 34 17 29 30 -11 36 -25 3 -25 4
-26 103 -1 55 3 105 8 112 7 8 3 21 -11 40 -16 20 -20 34 -15 57 10 48 15 53
47 40z m121 -226 c3 -24 4 -74 1 -113 -2 -38 -5 -76 -5 -83 0 -7 -4 -10 -10
-7 -12 8 -14 245 -1 245 5 0 11 -19 15 -42z"/>
<path d="M8165 4330 c-8 -12 20 -24 35 -15 6 3 8 11 5 16 -8 12 -32 12 -40 -1z"/>
<path d="M5743 4313 c-13 -8 -23 -19 -23 -24 0 -17 39 -9 50 10 18 36 10 40
-27 14z"/>
<path d="M5390 4235 c0 -8 7 -15 15 -15 8 0 15 7 15 15 0 8 -7 15 -15 15 -8 0
-15 -7 -15 -15z"/>
<path d="M7731 4208 c-12 -24 -23 -66 -24 -93 -4 -57 -11 -75 -33 -75 -37 0 2
-47 51 -60 21 -6 35 -50 16 -50 -17 0 -13 -25 7 -43 28 -26 50 -22 45 7 -5 22
-1 25 28 28 32 3 34 6 36 41 2 35 -1 40 -31 52 -18 8 -38 21 -45 29 -11 13 -9
17 13 26 24 9 26 14 26 64 0 30 -5 58 -11 61 -6 4 -8 14 -4 23 6 17 -10 32
-36 32 -9 0 -26 -19 -38 -42z"/>
<path d="M5115 4181 c-3 -5 -1 -12 5 -16 12 -7 30 2 30 16 0 12 -27 12 -35 0z"/>
<path d="M7586 4162 c-3 -6 -1 -14 5 -17 15 -10 25 3 12 16 -7 7 -13 7 -17 1z"/>
<path d="M5100 4115 c0 -8 5 -15 10 -15 6 0 10 -12 10 -26 l0 -25 31 18 30 18
-28 22 c-32 26 -53 29 -53 8z"/>
<path d="M2752 4088 c5 -15 28 -18 29 -3 0 6 -7 12 -17 13 -10 3 -15 -1 -12
-10z"/>
<path d="M5360 4035 c-16 -19 -6 -45 18 -45 27 0 32 9 20 36 -13 28 -21 30
-38 9z"/>
<path d="M2772 4018 c5 -15 57 -18 61 -3 1 6 -13 11 -32 13 -24 3 -32 0 -29
-10z"/>
<path d="M5120 3990 c0 -24 15 -27 24 -4 9 22 8 24 -9 24 -8 0 -15 -9 -15 -20z"/>
<path d="M5119 3893 c-1 -10 0 -24 1 -32 2 -14 -4 -27 -38 -99 -16 -33 -8 -60
9 -30 8 14 14 15 35 6 20 -9 28 -9 42 5 13 14 14 22 6 45 -8 20 -7 33 0 45 8
13 7 24 -4 45 -19 32 -49 42 -51 15z"/>
<path d="M6524 3701 c-14 -12 -23 -25 -20 -28 9 -10 55 7 73 26 10 10 27 21
38 24 11 2 1 4 -23 3 -29 -1 -50 -8 -68 -25z"/>
<path d="M6922 3705 c-23 -13 -60 -37 -81 -54 -21 -17 -42 -31 -45 -31 -11 0
-206 -151 -206 -159 0 -4 -21 -23 -47 -41 -25 -19 -78 -63 -117 -98 -39 -35
-87 -72 -107 -82 -33 -18 -37 -23 -41 -72 -3 -29 0 -68 7 -88 7 -20 10 -65 7
-108 -6 -100 -4 -102 130 -102 92 0 110 -2 115 -17 7 -18 -30 -52 -89 -82 -32
-16 -96 -94 -97 -119 -1 -7 11 -17 27 -23 l27 -11 -22 -18 c-13 -10 -23 -21
-23 -24 0 -9 93 -7 108 2 7 5 10 16 6 25 -4 11 8 36 35 72 37 48 46 55 77 55
24 0 36 5 40 18 10 31 29 67 38 74 6 4 48 6 95 6 47 -1 99 4 114 10 24 10 26
15 17 32 -7 14 -8 32 -1 58 5 20 11 68 13 107 l3 70 -35 5 -35 5 3 129 c2 84
8 141 18 164 7 19 14 48 14 64 0 18 9 38 25 52 14 13 25 29 25 35 0 7 11 27
24 44 29 39 58 106 50 118 -8 14 -25 10 -72 -16z m-192 -184 c0 -5 -7 -14 -15
-21 -8 -7 -15 -17 -15 -22 0 -11 -65 -92 -137 -170 -29 -31 -53 -61 -53 -66 0
-17 -94 -102 -112 -102 -24 0 -23 21 2 53 11 14 20 29 20 33 0 4 21 29 48 55
26 26 92 93 146 148 94 95 116 113 116 92z"/>
<path d="M5110 3677 c0 -5 -9 -21 -20 -35 -15 -19 -19 -34 -14 -55 4 -20 1
-34 -12 -48 -14 -16 -16 -24 -7 -38 6 -10 8 -22 3 -27 -8 -9 -15 -66 -23 -194
-20 -301 -20 -288 0 -299 15 -9 16 -10 2 -11 -21 0 -49 -42 -49 -74 0 -14 -4
-28 -10 -31 -5 -3 -10 -17 -10 -31 0 -14 -7 -38 -15 -53 -17 -34 -12 -42 26
-34 16 3 35 0 44 -7 19 -16 35 -4 35 26 0 14 7 39 16 55 8 17 14 38 13 47 -1
9 1 25 6 35 4 10 5 48 2 84 -4 42 -2 73 5 87 12 21 13 35 22 211 5 109 20 194
39 232 11 21 12 32 3 46 -9 15 -7 21 7 31 15 12 15 15 2 26 -8 7 -15 24 -15
39 0 21 -5 26 -25 26 -14 0 -25 -4 -25 -8z"/>
<path d="M3906 3665 c-10 -8 -16 -21 -13 -29 5 -14 10 -13 36 2 17 9 33 23 36
30 6 17 -35 15 -59 -3z"/>
<path d="M1265 3609 c-10 -30 18 -58 40 -39 22 18 15 54 -12 58 -15 2 -23 -3
-28 -19z"/>
<path d="M5370 3586 c-14 -27 -7 -60 12 -54 7 3 15 17 20 33 12 48 -9 62 -32
21z"/>
<path d="M6302 3579 c6 -17 57 -24 71 -10 8 8 4 11 -15 11 -15 0 -34 3 -44 7
-12 4 -15 2 -12 -8z"/>
<path d="M7730 3540 c0 -5 7 -10 15 -10 8 0 15 5 15 10 0 6 -7 10 -15 10 -8 0
-15 -4 -15 -10z"/>
<path d="M4020 3430 c0 -14 26 -23 41 -15 8 6 7 10 -2 16 -19 12 -39 11 -39
-1z"/>
<path d="M5399 3413 c-1 -10 -2 -25 -3 -34 -1 -9 -8 -25 -17 -35 -29 -34 -31
-44 -11 -44 27 0 58 56 54 98 -3 34 -21 45 -23 15z"/>
<path d="M1260 3395 c0 -29 0 -29 36 -10 l28 14 -28 11 c-36 13 -36 14 -36
-15z"/>
<path d="M6261 3393 c0 -10 4 -27 8 -38 7 -17 8 -17 15 8 3 16 4 32 1 37 -10
16 -25 11 -24 -7z"/>
<path d="M3002 3318 c3 -7 15 -15 27 -16 16 -3 22 1 19 10 -3 7 -15 15 -27 16
-16 3 -22 -1 -19 -10z"/>
<path d="M4045 3303 c-3 -16 -14 -37 -23 -47 -13 -14 -14 -20 -4 -23 14 -5 17
-33 3 -33 -5 0 -11 6 -14 13 -2 6 -8 8 -13 4 -5 -4 -2 -12 5 -17 9 -5 11 -15
7 -26 -7 -18 -8 -18 -18 0 -29 52 -88 74 -73 27 3 -11 1 -22 -4 -26 -16 -10
-42 -107 -32 -119 5 -6 12 -32 16 -58 4 -27 10 -48 14 -48 3 0 13 15 20 33 8
17 23 38 33 45 10 7 18 19 18 26 0 8 6 19 14 25 11 9 15 7 19 -11 5 -18 9 -20
18 -11 9 9 9 15 0 26 -9 12 -8 16 6 21 31 12 55 -29 47 -81 -6 -43 4 -55 32
-35 12 8 13 81 2 98 -4 7 5 28 22 49 17 21 30 39 30 40 0 1 -14 -1 -31 -3 -36
-5 -49 8 -49 55 0 17 -5 35 -10 38 -8 5 -7 11 1 21 6 7 9 21 5 29 -9 24 -33
17 -41 -12z"/>
<path d="M1157 3163 c-4 -3 -7 -16 -7 -28 0 -13 -7 -28 -16 -35 -29 -25 -54
-91 -52 -141 1 -45 9 -61 22 -41 3 5 18 7 34 4 16 -2 32 1 36 6 9 14 -21 42
-45 42 -25 0 -24 25 1 57 11 14 20 32 20 39 0 8 6 14 14 14 24 0 46 29 46 61
0 24 -4 29 -23 29 -13 0 -27 -3 -30 -7z"/>
<path d="M5350 3114 c-12 -22 -12 -27 0 -34 12 -7 11 -12 -5 -30 -30 -33 -55
-44 -69 -30 -8 8 -6 15 8 26 15 10 17 17 9 25 -20 20 -47 5 -54 -30 -4 -19
-14 -38 -23 -43 -18 -10 -23 -83 -7 -93 8 -4 8 -76 2 -136 -1 -4 -20 -19 -43
-35 -60 -40 -88 -66 -82 -76 3 -4 2 -18 -2 -30 -6 -19 -7 -20 -16 -4 -5 9 -7
23 -5 30 3 7 1 19 -3 26 -7 12 -15 12 -49 0 -23 -7 -41 -18 -41 -24 0 -22 17
-37 33 -30 10 3 17 1 17 -5 0 -6 -5 -11 -11 -11 -6 0 -23 -12 -38 -28 -30 -29
-30 -26 -20 -226 2 -39 -17 -66 -48 -66 -7 0 -13 -4 -13 -10 0 -5 11 -10 24
-10 31 0 40 -14 21 -30 -21 -17 -19 -27 6 -33 21 -6 20 -7 -10 -32 -17 -15
-38 -24 -46 -21 -12 4 -13 2 -5 -13 5 -11 15 -21 22 -24 10 -3 9 -9 -4 -23
-11 -13 -14 -24 -8 -33 5 -8 4 -25 -2 -40 -5 -14 -11 -46 -13 -71 -2 -25 -7
-81 -10 -124 -4 -44 -13 -89 -21 -102 -11 -15 -13 -34 -8 -58 4 -22 2 -42 -5
-50 -13 -15 -18 -297 -7 -333 5 -16 2 -25 -14 -33 -11 -6 -20 -21 -20 -34 0
-13 -12 -45 -26 -71 -22 -43 -26 -61 -26 -149 0 -55 -6 -124 -14 -155 -9 -33
-12 -67 -7 -85 4 -17 5 -35 3 -41 -2 -5 -7 -53 -10 -106 -4 -52 -10 -102 -15
-109 -5 -8 -7 -37 -6 -66 1 -29 -2 -55 -7 -58 -6 -4 -8 -63 -4 -153 3 -82 6
-165 6 -185 l0 -38 182 0 181 0 -3 78 c-1 42 -10 119 -19 169 -16 92 -13 128
15 198 14 34 28 117 29 174 1 30 5 59 10 65 6 7 6 18 2 25 -5 7 -5 27 -2 45 6
28 6 207 0 231 -2 10 3 26 23 75 6 14 12 66 13 115 2 50 5 113 7 140 2 28 0
64 -4 81 -6 21 -2 60 10 115 11 46 19 93 20 104 5 176 2 205 -22 205 -7 0 -21
6 -31 14 -18 13 -18 15 8 45 24 29 26 38 23 104 -2 40 -8 85 -15 100 -16 40
-14 55 9 62 31 10 41 37 28 73 -10 26 -9 34 6 51 16 18 17 23 5 38 -8 10 -19
22 -26 26 -9 6 -7 13 8 28 17 17 20 30 16 65 -4 39 -1 47 20 64 22 17 24 24
18 60 -6 33 -1 52 28 112 38 82 52 154 36 195 -7 19 -7 29 0 31 6 2 11 8 11
13 0 5 9 18 20 29 11 11 20 28 20 38 0 9 16 28 35 41 43 29 54 58 28 76 -17
13 -17 14 0 20 20 8 23 35 4 35 -8 0 -20 -12 -27 -26z"/>
<path d="M7485 3110 c-11 -5 -38 -27 -60 -50 l-39 -40 41 0 c43 0 133 33 133
48 0 9 -43 52 -51 51 -2 0 -13 -4 -24 -9z"/>
<path d="M7272 3083 c4 -39 28 -42 28 -4 0 21 -5 31 -16 31 -11 0 -14 -8 -12
-27z"/>
<path d="M4070 2940 c0 -35 10 -38 34 -11 21 23 14 41 -15 41 -14 0 -19 -7
-19 -30z"/>
<path d="M1280 2916 c0 -20 5 -26 21 -26 15 0 20 5 17 22 -5 34 -38 37 -38 4z"/>
<path d="M7170 2910 c0 -23 4 -30 20 -30 22 0 25 12 10 41 -16 28 -30 23 -30
-11z"/>
<path d="M6925 2870 c-8 -13 4 -32 16 -25 12 8 12 35 0 35 -6 0 -13 -4 -16
-10z"/>
<path d="M4080 2855 c-7 -8 -16 -15 -21 -15 -4 0 -19 -11 -33 -23 -25 -23 -25
-37 -2 -37 16 0 86 64 86 78 0 17 -15 15 -30 -3z"/>
<path d="M3893 2834 c-3 -10 -2 -29 4 -44 6 -16 7 -34 3 -41 -5 -7 -3 -20 3
-30 8 -13 8 -24 -1 -43 -17 -39 -7 -52 41 -52 51 1 57 17 32 82 -9 25 -15 51
-12 58 3 8 1 30 -5 50 -9 28 -17 36 -35 36 -13 0 -26 -7 -30 -16z"/>
<path d="M6725 2769 c-4 -6 -5 -13 -2 -16 7 -7 27 6 27 18 0 12 -17 12 -25 -2z"/>
<path d="M3165 2750 c-3 -6 -3 -19 0 -30 4 -14 -2 -27 -19 -44 l-26 -24 24
-15 c27 -18 137 -57 160 -57 31 0 26 22 -14 63 -23 23 -48 54 -56 69 -8 15
-23 32 -33 38 -24 12 -28 13 -36 0z"/>
<path d="M1290 2715 c-9 -11 -10 -19 -3 -26 17 -17 48 -6 48 16 0 25 -28 31
-45 10z"/>
<path d="M1300 2641 c-19 -36 -13 -61 15 -61 25 0 33 14 15 25 -6 3 -7 17 -4
31 7 29 -11 33 -26 5z"/>
<path d="M1257 2528 c-2 -7 2 -26 10 -42 13 -24 19 -27 45 -22 17 3 49 6 71 6
55 0 42 9 -18 13 -43 2 -50 6 -55 27 -6 27 -45 40 -53 18z"/>
<path d="M3810 2346 c0 -29 27 -38 77 -28 38 9 51 8 64 -4 18 -17 42 -19 37
-3 -5 15 -105 49 -145 49 -21 0 -33 -5 -33 -14z"/>
<path d="M7674 2288 c-40 -62 -51 -93 -41 -115 6 -13 14 -23 19 -23 12 0 46
77 50 114 3 31 -15 46 -28 24z"/>
<path d="M6413 2283 c-37 -5 -63 -37 -44 -56 7 -7 18 -7 36 1 14 7 34 12 43
12 9 0 25 12 35 25 18 25 18 25 -10 23 -15 0 -43 -3 -60 -5z"/>
<path d="M6276 2223 c-11 -11 -6 -23 9 -23 8 0 15 4 15 9 0 13 -16 22 -24 14z"/>
<path d="M6098 2177 c-34 -13 -36 -27 -5 -27 38 0 67 12 67 26 0 16 -23 16
-62 1z"/>
<path d="M6230 2170 c0 -5 7 -10 15 -10 8 0 15 5 15 10 0 6 -7 10 -15 10 -8 0
-15 -4 -15 -10z"/>
<path d="M6748 2028 c-4 -11 25 -48 37 -48 3 0 5 14 5 30 0 23 -5 30 -19 30
-11 0 -21 -5 -23 -12z"/>
<path d="M7485 1930 c-3 -5 3 -10 15 -10 12 0 18 5 15 10 -3 6 -10 10 -15 10
-5 0 -12 -4 -15 -10z"/>
<path d="M6701 1885 c-13 -14 -19 -25 -14 -25 5 0 20 11 33 25 13 14 19 25 14
25 -5 0 -20 -12 -33 -25z"/>
<path d="M6656 1835 c-9 -24 5 -41 16 -20 7 11 7 20 0 27 -6 6 -12 3 -16 -7z"/>
<path d="M6400 1784 c0 -17 22 -14 28 4 2 7 -3 12 -12 12 -9 0 -16 -7 -16 -16z"/>
<path d="M7102 1694 c4 -21 22 -23 26 -1 2 10 -3 17 -13 17 -10 0 -15 -6 -13
-16z"/>
<path d="M7240 1637 c0 -7 -25 -37 -55 -67 -30 -30 -55 -58 -55 -62 0 -5 11
-13 24 -19 16 -8 22 -17 19 -30 -5 -19 0 -20 70 -10 5 0 8 20 6 44 -2 54 9 95
33 119 10 10 16 23 13 28 -9 15 -55 12 -55 -3z"/>
<path d="M7332 1629 c2 -6 8 -10 13 -10 5 0 11 4 13 10 2 6 -4 11 -13 11 -9 0
-15 -5 -13 -11z"/>
<path d="M4173 1557 c-11 -15 -27 -27 -35 -27 -8 0 -21 -12 -29 -27 -8 -15
-30 -44 -49 -64 -97 -98 -130 -136 -130 -148 0 -9 13 -4 34 13 19 14 39 26 44
26 10 0 118 125 165 191 32 45 32 76 0 36z"/>
<path d="M7325 1449 c-8 -12 14 -31 30 -26 6 2 10 10 10 18 0 17 -31 24 -40 8z"/>
<path d="M7292 1328 c-17 -17 -15 -48 3 -48 8 0 15 -4 15 -10 0 -14 47 -13 56
1 3 6 17 9 30 6 12 -2 28 -1 35 3 19 12 0 30 -32 30 -17 0 -32 6 -35 15 -7 18
-55 20 -72 3z"/>
<path d="M7026 1112 c-32 -16 -66 -47 -66 -62 0 -12 70 -13 88 -1 8 5 12 22
10 42 -3 34 -3 34 -32 21z"/>
<path d="M7255 1030 c-8 -13 4 -32 16 -25 12 8 12 35 0 35 -6 0 -13 -4 -16
-10z"/>
<path d="M6998 986 c-35 -26 -15 -48 36 -39 21 4 26 10 24 27 -4 25 -35 32
-60 12z"/>
<path d="M7551 946 c-7 -9 -22 -16 -33 -16 -13 0 -18 -5 -15 -14 7 -18 -25
-65 -54 -80 -13 -6 -25 -20 -27 -31 -2 -11 -12 -39 -23 -63 -14 -31 -17 -48
-9 -61 7 -14 6 -22 -5 -31 -9 -8 -12 -18 -6 -27 4 -8 4 -34 0 -57 -5 -22 -8
-64 -9 -92 0 -28 -11 -86 -25 -128 -29 -90 -30 -107 -9 -148 12 -24 13 -36 5
-54 -9 -20 -7 -25 10 -35 41 -22 64 8 33 43 -16 16 -16 18 0 24 9 3 16 14 16
24 0 10 9 21 19 25 11 3 22 12 25 20 3 8 13 15 21 15 11 0 15 7 13 23 -1 12 8
39 20 58 12 20 22 43 22 50 0 8 7 24 15 36 10 14 13 32 9 48 -5 19 -1 32 16
50 18 19 20 28 12 38 -7 8 -9 16 -7 19 7 7 24 105 31 178 3 30 0 75 -6 100 -6
25 -14 58 -18 74 -7 26 -9 27 -21 12z"/>
<path d="M6987 923 c-4 -3 -7 -17 -7 -31 0 -14 -7 -30 -16 -37 -15 -11 -15
-14 1 -39 23 -35 39 -29 46 20 3 21 7 44 9 49 9 34 -12 59 -33 38z"/>
<path d="M5912 808 c-17 -17 -15 -48 3 -48 17 0 39 36 30 50 -8 13 -18 13 -33
-2z"/>
<path d="M6295 793 c-3 -15 -8 -48 -10 -72 -4 -44 -4 -44 15 -25 13 13 21 36
22 68 3 54 -15 74 -27 29z"/>
<path d="M8036 795 c-3 -8 -1 -17 3 -20 5 -3 11 2 15 10 3 8 1 17 -3 20 -5 3
-11 -2 -15 -10z"/>
<path d="M6890 730 c0 -27 -5 -43 -15 -46 -11 -5 -14 -17 -11 -51 3 -25 7 -48
10 -50 7 -7 26 42 26 66 0 9 4 21 9 27 5 5 11 27 13 49 2 31 -1 40 -14 43 -15
3 -18 -4 -18 -38z"/>
<path d="M7005 741 c-3 -10 -3 -26 1 -35 4 -11 1 -16 -10 -16 -12 0 -16 -9
-16 -35 0 -23 -9 -45 -28 -67 -15 -18 -33 -46 -40 -61 -11 -25 -16 -28 -42
-22 -28 6 -29 4 -44 -46 -9 -28 -13 -62 -10 -75 5 -18 2 -24 -10 -24 -17 0
-21 -22 -17 -92 3 -37 -11 -52 -22 -25 -8 21 -137 20 -153 -1 -16 -22 -19 -89
-8 -170 5 -35 3 -46 -12 -57 -17 -13 12 -14 220 -15 211 0 237 2 226 15 -13
16 -3 37 33 63 18 14 24 72 7 72 -5 0 -10 -7 -10 -15 0 -9 -9 -15 -25 -15 -30
0 -30 -1 -5 53 11 23 19 51 19 62 -1 44 15 110 28 118 17 10 8 27 -15 27 -14
0 -17 13 -20 87 -2 64 2 92 13 109 18 28 19 44 3 44 -7 0 -23 11 -35 23 -17
19 -21 32 -17 70 5 48 0 61 -11 28z"/>
<path d="M6737 733 c-13 -12 -7 -33 8 -33 8 0 15 9 15 20 0 20 -11 26 -23 13z"/>
<path d="M7112 683 c-7 -12 -12 -32 -12 -45 1 -22 1 -22 16 5 8 16 14 36 12
45 -3 14 -6 14 -16 -5z"/>
<path d="M6867 556 c-3 -8 -2 -18 3 -21 13 -8 24 15 12 27 -6 6 -11 4 -15 -6z"/>
<path d="M13468 21 c-15 -18 -14 -19 8 -17 16 1 24 7 24 19 0 22 -12 22 -32
-2z"/>
</g>
</svg>
